HIERARCHY
ROOT SpineBase
{
  OFFSET 0.000000 0.000000 0.000000
  CHANNELS 6 Xposition Yposition Zposition Zrotation Xrotation Yrotation
  JOINT SpineMid
  {
    OFFSET 0.000000 32.936233 -0.000000
    CHANNELS 3 Zrotation Xrotation Yrotation
    JOINT SpineShoulder
    {
      OFFSET -0.199961 24.522570 -0.883827
      CHANNELS 3 Zrotation Xrotation Yrotation
      JOINT Neck
      {
        OFFSET -0.095253 8.122897 -0.676582
        CHANNELS 3 Zrotation Xrotation Yrotation
        JOINT Head
        {
          OFFSET -6.274407 12.615166 2.205726
          CHANNELS 3 Zrotation Xrotation Yrotation
          End Site
          {
            OFFSET 0 0 0
          }
        }
      }
      JOINT ShoulderLeft
      {
        OFFSET -12.815433 -5.011347 14.569244
        CHANNELS 3 Zrotation Xrotation Yrotation
        JOINT ElbowLeft
        {
          OFFSET -2.498055 -18.990921 -6.731628
          CHANNELS 3 Zrotation Xrotation Yrotation
          JOINT WristLeft
          {
            OFFSET 4.223918 -9.948750 -28.111306
            CHANNELS 3 Zrotation Xrotation Yrotation
            JOINT HandLeft
            {
              OFFSET 2.865218 -0.742792 -4.915974
              CHANNELS 3 Zrotation Xrotation Yrotation
              JOINT HandTipLeft
              {
                OFFSET 1.240199 -2.884129 -3.783685
                CHANNELS 3 Zrotation Xrotation Yrotation
                End Site
                {
                  OFFSET 0 0 0
                }
              }
              JOINT ThumbLeft
              {
                OFFSET -2.781908 -0.630070 -3.938773
                CHANNELS 3 Zrotation Xrotation Yrotation
                End Site
                {
                  OFFSET 0 0 0
                }
              }
            }
          }
        }
      }
      JOINT ShoulderRight
      {
        OFFSET 9.938525 -3.469873 -14.407140
        CHANNELS 3 Zrotation Xrotation Yrotation
        JOINT ElbowRight
        {
          OFFSET 7.683375 -25.024057 -6.339515
          CHANNELS 3 Zrotation Xrotation Yrotation
          JOINT WristRight
          {
            OFFSET -18.325059 -8.453855 -7.227193
            CHANNELS 3 Zrotation Xrotation Yrotation
            JOINT HandRight
            {
              OFFSET -8.363654 1.945380 -3.654901
              CHANNELS 3 Zrotation Xrotation Yrotation
              JOINT HandTipRight
              {
                OFFSET -7.225694 -0.030240 -2.205686
                CHANNELS 3 Zrotation Xrotation Yrotation
                End Site
                {
                  OFFSET 0 0 0
                }
              }
              JOINT ThumbRight
              {
                OFFSET -0.635951 5.106073 -2.964193
                CHANNELS 3 Zrotation Xrotation Yrotation
                End Site
                {
                  OFFSET 0 0 0
                }
              }
            }
          }
        }
      }
    }
  }
  JOINT HipLeft
  {
    OFFSET -5.148064 0.005774 1.543327
    CHANNELS 3 Zrotation Xrotation Yrotation
    JOINT KneeLeft
    {
      OFFSET -2.197702 -34.583649 7.250513
      CHANNELS 3 Zrotation Xrotation Yrotation
      JOINT AnkleLeft
      {
        OFFSET 17.365754 -39.156020 4.010684
        CHANNELS 3 Zrotation Xrotation Yrotation
        JOINT FootLeft
        {
          OFFSET -9.117159 -4.242457 -10.433026
          CHANNELS 3 Zrotation Xrotation Yrotation
          End Site
          {
            OFFSET 0 0 0
          }
        }
      }
    }
  }
  JOINT HipRight
  {
    OFFSET 4.620977 2.441501 -8.734575
    CHANNELS 3 Zrotation Xrotation Yrotation
    JOINT KneeRight
    {
      OFFSET 4.365635 -37.907302 -3.167777
      CHANNELS 3 Zrotation Xrotation Yrotation
      JOINT AnkleRight
      {
        OFFSET 8.802321 -40.140383 5.851322
        CHANNELS 3 Zrotation Xrotation Yrotation
        JOINT FootRight
        {
          OFFSET -7.030563 -5.549155 -6.935888
          CHANNELS 3 Zrotation Xrotation Yrotation
          End Site
          {
            OFFSET 0 0 0
          }
        }
      }
    }
  }
}
MOTION
Frames: 8
Frame Time: 0.033333
19.860782 85.254073 293.025045 -0.000000 -0.000000 46.454054 0.000000 0.000000 -46.454054 -0.000000 0.000000 0.000000 -0.000000 0.000000 0.000000 0.000000 0.000000 0.000000 -0.000000 0.000000 0.000000 -0.000000 0.000000 0.000000 -0.000000 0.000000 0.000000 -0.000000 0.000000 0.000000 0.000000 0.000000 0.000000 0.000000 0.000000 0.000000 -0.000000 0.000000 0.000000 -0.000000 0.000000 0.000000 -0.000000 0.000000 0.000000 -0.000000 0.000000 0.000000 0.000000 0.000000 0.000000 0.000000 0.000000 0.000000 0.000000 0.000000 -46.454054 -0.000000 0.000000 0.000000 -0.000000 0.000000 0.000000 0.000000 0.000000 0.000000 0.000000 0.000000 -46.454054 -0.000000 0.000000 0.000000 -0.000000 0.000000 0.000000 0.000000 0.000000 0.000000
19.773261 85.278343 292.867176 -0.078464 0.017084 46.692298 0.041388 -0.068815 -46.692262 -0.000000 0.000000 0.000000 -0.000000 0.000000 0.000000 0.000000 0.000000 0.000000 -1.123841 -9.702700 1.629138 2.305858 14.172462 -2.115954 -0.719250 -0.539271 12.564186 -0.334594 -0.075356 -10.531290 0.000000 0.000000 0.000000 0.000000 0.000000 0.000000 -0.000000 0.000000 0.000000 -0.000000 0.000000 0.000000 -1.957436 1.022737 0.809705 0.449445 -0.541072 -2.415264 0.000000 0.000000 0.000000 0.000000 0.000000 0.000000 0.041388 -0.068815 -46.692262 -0.000000 0.000000 0.000000 4.354649 -5.417836 1.426242 0.000000 0.000000 0.000000 0.041388 -0.068815 -46.692262 -0.000000 0.000000 0.000000 -0.000000 0.000000 0.000000 0.000000 0.000000 0.000000
19.697491 85.300221 292.719440 -0.137544 0.035440 46.858789 0.068193 -0.124595 -46.858672 -0.000000 0.000000 0.000000 -0.000000 0.000000 0.000000 0.000000 0.000000 0.000000 -2.057094 -15.269021 2.590474 4.603628 23.096211 -3.755696 -1.613408 -1.713412 19.806700 -0.387674 0.125849 -16.443323 0.000000 0.000000 0.000000 0.000000 0.000000 0.000000 -0.000000 0.000000 0.000000 -0.544733 -0.084946 0.643197 -3.142428 1.990253 0.723371 0.648960 -0.846938 -4.632395 0.000000 0.000000 0.000000 0.000000 0.000000 0.000000 0.068193 -0.124595 -46.858672 -0.000000 0.000000 0.000000 9.140025 -10.983776 3.433946 0.000000 0.000000 0.000000 0.068193 -0.124595 -46.858672 -0.000000 0.000000 0.000000 0.381764 0.365559 -0.941737 0.000000 0.000000 0.000000
19.633473 85.319707 292.581836 -0.177233 0.055066 46.954732 0.080732 -0.167111 -46.954529 -0.000000 0.000000 0.000000 -0.000000 0.000000 0.000000 0.000000 0.000000 0.000000 -3.025523 -17.156651 3.041362 6.461059 27.296422 -4.524928 -2.335210 -2.509816 24.825671 -0.518183 0.285879 -20.534355 0.000000 0.000000 0.000000 0.000000 0.000000 0.000000 -0.000000 0.000000 0.000000 -0.825821 -0.053461 0.809175 -4.415312 2.691149 0.866345 0.649461 -0.943987 -6.658563 0.000000 0.000000 0.000000 0.000000 0.000000 0.000000 0.080732 -0.167111 -46.954529 -0.000000 0.000000 0.000000 13.632271 -15.761761 5.706877 0.000000 0.000000 0.000000 0.080732 -0.167111 -46.954529 -0.000000 0.000000 0.000000 1.462405 -0.577399 -1.114037 0.000000 0.000000 0.000000
19.581206 85.336801 292.454365 -0.197526 0.075964 46.981101 0.079221 -0.196243 -46.980835 -0.000000 0.000000 0.000000 -0.000000 0.000000 0.000000 0.000000 0.000000 0.000000 -4.148281 -15.488398 3.090039 7.553902 26.957971 -4.059186 -2.828618 -2.555487 28.765090 -0.836018 0.408291 -23.752412 0.000000 0.000000 0.000000 0.000000 0.000000 0.000000 -0.000000 0.000000 0.000000 -1.116648 0.026020 0.879731 -5.521117 3.223907 0.867750 0.494522 -0.860565 -8.490889 0.000000 0.000000 0.000000 0.000000 0.000000 0.000000 0.079221 -0.196243 -46.980835 0.159928 0.783402 0.362761 16.548525 -19.663551 7.407186 0.000000 0.000000 0.000000 0.079221 -0.196243 -46.980835 -0.000000 0.000000 0.000000 3.218713 -2.350469 -1.043588 0.000000 0.000000 0.000000
19.540691 85.351504 292.337026 -0.198419 0.098134 46.938635 0.063778 -0.211974 -46.938347 -0.000000 0.000000 0.000000 -0.000000 0.000000 0.000000 0.000000 0.000000 0.000000 -5.462691 -9.801862 2.829203 7.810362 21.630713 -2.167472 -3.066014 -1.670099 32.136254 -1.409959 0.568850 -26.446355 0.000000 0.000000 0.000000 0.000000 0.000000 0.000000 -0.000000 0.000000 0.000000 -1.419951 0.153877 0.858274 -6.478266 3.603585 0.730114 0.220738 -0.625934 -10.119035 0.000000 0.000000 0.000000 0.000000 0.000000 0.000000 0.063778 -0.211974 -46.938347 0.246748 0.817892 0.386167 17.244572 -20.449619 8.052828 0.000000 0.000000 0.000000 0.063778 -0.211974 -46.938347 -0.000000 0.000000 0.000000 5.793846 -5.078120 -0.627812 0.000000 0.000000 0.000000
19.546109 85.328685 292.268226 -0.154234 0.061531 46.899760 0.060457 -0.154658 -46.899596 -0.000000 0.000000 0.000000 -0.000000 0.000000 0.000000 0.000000 0.000000 0.000000 -6.466897 8.340952 1.613858 6.170697 1.639199 3.322872 -2.958342 2.570644 37.864079 -1.239024 1.035661 -31.614087 0.000000 0.000000 0.000000 0.000000 0.000000 0.000000 -0.000000 0.000000 0.000000 -0.725255 -0.215181 1.072086 -8.827008 4.612943 -0.271060 0.268141 -0.474575 -10.095085 0.000000 0.000000 0.000000 0.000000 0.000000 0.000000 0.060457 -0.154658 -46.899596 0.390992 0.870905 0.423019 13.905630 -17.621245 7.098058 0.000000 0.000000 0.000000 0.060457 -0.154658 -46.899596 -0.000000 0.000000 0.000000 20.503146 -19.644580 5.082351 0.000000 0.000000 0.000000
19.537282 85.335016 292.143726 -0.109814 0.120112 46.750836 -0.012245 -0.162284 -46.750738 -0.000000 0.000000 0.000000 -0.000000 0.000000 0.000000 0.000000 0.000000 0.000000 -8.178222 25.529805 1.234135 6.190945 -16.700854 9.019124 -2.193290 3.122399 38.576958 -5.067157 2.160342 -31.115798 0.000000 0.000000 0.000000 0.000000 0.000000 0.000000 -0.000000 0.000000 0.000000 -1.957062 0.385502 0.811794 -7.626365 3.946523 -0.239414 -2.619777 1.257196 -14.064038 0.000000 0.000000 0.000000 0.000000 0.000000 0.000000 -0.012245 -0.162284 -46.750738 0.674241 0.787464 0.412887 7.968783 -11.879033 5.024977 0.000000 0.000000 0.000000 -0.012245 -0.162284 -46.750738 -0.000000 0.000000 0.000000 27.898663 -25.499232 9.209463 0.000000 0.000000 0.000000
